<svg version="1.1" viewBox="0.0 0.0 960.0 720.0" fill="none" stroke="none" stroke-linecap="square" stroke-miterlimit="10" xmlns:xlink="http://www.w3.org/1999/xlink" xmlns="http://www.w3.org/2000/svg"><clipPath id="p.0"><path d="m0 0l960.0 0l0 720.0l-960.0 0l0 -720.0z" clip-rule="nonzero"/></clipPath><g clip-path="url(#p.0)"><path fill="#000000" fill-opacity="0.0" d="m0 0l960.0 0l0 720.0l-960.0 0z" fill-rule="evenodd"/><path fill="#990000" d="m0.0131233595 33.46194l960.0 0l0 659.4331l-960.0 0z" fill-rule="evenodd"/><path fill="#000000" fill-opacity="0.0" d="m201.77953 292.20996l556.4409 0l0 112.50394l-556.4409 0z" fill-rule="evenodd"/><path fill="#f1c232" d="m274.35547 354.0181l-11.8125 0q-1.25 -3.09375 -3.875 -4.890625q-2.625 -1.8125 -5.4531403 -1.8125q-1.9375 0 -3.078125 0.71875q-1.140625 0.703125 -1.140625 2.125q0 1.75 1.96875 2.640625q1.984375 0.875 4.96875 1.5625q3.0000153 0.6875 6.4687653 1.65625q3.484375 0.96875 6.46875 2.78125q2.984375 1.796875 4.953125 4.84375q1.984375 3.046875 1.984375 8.03125q0 3.875 -1.71875 6.75q-1.71875 2.875 -4.703125 4.734375q-2.984375 1.84375 -7.03125 2.765625q-4.03125 0.921875 -8.718765 0.921875q-4.546875 0 -8.609375 -0.890625q-4.0625 -0.875 -7.75 -2.96875l-0.4375 2.96875l-11.34375 0l0 -17.234375l11.78125 0q1.671875 3.4375 4.21875 5.328125q2.5625 1.890625 5.65625 1.890625q2.359375 0 3.375 -0.875q1.015625 -0.890625 1.015625 -1.96875q0 -1.765625 -1.984375 -2.71875q-1.96875 -0.96875 -4.875 -1.71875q-2.90625 -0.765625 -6.390625 -1.6875q-3.46875 -0.921875 -6.375 -2.671875q-2.890625 -1.765625 -4.875 -4.75q-1.96875 -3.0 -1.96875 -7.84375q0 -3.484375 1.5625 -6.359375q1.5625 -2.890625 4.484375 -4.859375q2.921875 -1.984375 6.875 -3.03125q3.953125 -1.046875 8.6875 -1.046875q5.28125 0 9.51564 1.1875q4.234375 1.171875 6.34375 2.59375l0.421875 -3.0625l11.390625 0l0 16.890625zm69.60547 11.515625q0 2.28125 0.796875 3.25q0.796875 0.96875 3.078125 0.96875l1.40625 0l0 15.9375l-28.875 0l0 -27.453125q0 -1.6875 -0.34375 -2.6875q-0.34375 -1.015625 -0.921875 -1.546875q-0.578125 -0.546875 -1.328125 -0.71875q-0.75 -0.171875 -1.4375 -0.171875q-2.84375 0 -3.890625 1.640625q-1.046875 1.625 -1.046875 4.640625l0 6.140625q0 2.28125 0.78125 3.25q0.796875 0.96875 3.078125 0.96875l1.421875 0l0 15.9375l-35.015625 0l0 -15.9375l2.53125 0q1.765625 0 2.6875 -1.140625q0.921875 -1.140625 0.921875 -2.734375l0 -8.15625q0 -2.03125 -1.1875 -2.734375q-1.171875 -0.703125 -2.6875 -0.703125l-2.265625 0l0 -15.953125l25.515625 0l-0.90625 11.828125l0.734375 0q0.953125 -6.625 5.34375 -10.1875q4.40625 -3.5625 12.796875 -3.5625q3.125 0 5.859375 0.84375q2.734375 0.828125 4.859375 2.546875q2.125 1.71875 3.34375 4.328125q1.234375 2.59375 1.40625 6.03125l0.59375 0q0.390625 -3.265625 1.90625 -5.859375q1.53125 -2.609375 3.875 -4.328125q2.34375 -1.71875 5.15625 -2.640625q2.8125 -0.921875 5.90625 -0.921875q5.71875 0 9.328125 1.671875q3.609375 1.671875 5.625 4.234375q2.015625 2.546875 2.765625 5.546875q0.765625 2.984375 0.765625 5.59375l0 12.078125q0 2.28125 0.78125 3.25q0.796875 0.96875 3.078125 0.96875l2.28125 0l0 15.9375l-29.734375 0l0 -27.453125q0 -1.6875 -0.375 -2.6875q-0.359375 -1.015625 -0.921875 -1.546875q-0.546875 -0.546875 -1.3125 -0.71875q-0.75 -0.171875 -1.4375 -0.171875q-2.828125 0 -3.890625 1.640625q-1.046875 1.625 -1.046875 4.640625l0 6.140625zm64.32031 -21.21875q-2.1875 0 -3.765625 0.328125q-1.5625 0.3125 -2.6875 0.75q-1.109375 0.421875 -1.84375 0.96875q-0.71875 0.53125 -1.28125 0.953125l0.4375 0.4375q0.8125 -0.4375 1.78125 -0.859375q0.96875 -0.4375 2.46875 -0.4375q2.53125 0 4.375 1.65625q1.859375 1.65625 1.859375 5.265625q0 3.4375 -2.828125 5.53125q-2.8125 2.078125 -7.53125 2.078125q-4.515625 0 -7.203125 -2.59375q-2.6875 -2.609375 -2.6875 -7.375q0 -2.625 1.453125 -5.21875q1.46875 -2.609375 4.546875 -4.671875q3.078125 -2.0625 7.8125 -3.390625q4.75 -1.328125 11.453125 -1.328125q8.0 0 13.0625 1.5q5.078125 1.5 7.890625 3.875q2.8125 2.359375 3.859375 5.375q1.0625 3.0 1.0625 6.046875l0 16.796875q0 3.90625 0.25 5.3125q0.265625 1.390625 1.9375 1.390625q1.328125 0 1.859375 -1.265625q0.546875 -1.265625 0.546875 -4.359375l0 -5.375l4.90625 0l0 5.453125q0 3.875 -0.65625 6.859375q-0.640625 2.984375 -2.453125 5.109375q-1.796875 2.125 -4.890625 3.21875q-3.09375 1.109375 -7.90625 1.109375q-4.34375 0 -7.203125 -0.9375q-2.84375 -0.921875 -4.53125 -2.296875q-1.671875 -1.375 -2.390625 -2.84375q-0.703125 -1.484375 -0.703125 -2.65625l-0.6875 0q-0.25 1.765625 -1.484375 3.359375q-1.21875 1.59375 -3.390625 2.828125q-2.171875 1.21875 -5.203125 1.96875q-3.015625 0.75 -6.890625 0.75q-3.6875 0 -6.71875 -0.71875q-3.03125 -0.703125 -5.15625 -2.21875q-2.125 -1.53125 -3.3125 -3.953125q-1.1875 -2.4375 -1.1875 -5.796875q0 -4.125 2.3125 -6.5q2.328125 -2.390625 5.84375 -3.78125q3.53125 -1.40625 7.671875 -2.28125q4.15625 -0.875 7.671875 -2.125q3.53125 -1.25 5.84375 -3.21875q2.328125 -1.984375 2.328125 -5.59375q0 -3.21875 -2.015625 -5.171875q-2.015625 -1.953125 -6.625 -1.953125zm8.640625 18.59375q-0.9375 1.375 -2.359375 2.21875q-1.421875 0.84375 -2.734375 1.640625q-1.3125 0.78125 -2.28125 1.890625q-0.953125 1.09375 -0.953125 2.9375q0 1.421875 0.765625 2.5625q0.78125 1.125 3.015625 1.125q2.015625 0 3.28125 -1.5625q1.265625 -1.5625 1.265625 -4.40625l0 -6.40625zm65.91406 -40.515625l0 42.71875q0 2.875 1.421875 3.765625q1.421875 0.875 3.609375 0.875l1.15625 0l0 15.9375l-36.171875 0l0 -15.9375l1.671875 0q2.28125 0 3.375 -1.4375q1.09375 -1.453125 1.09375 -3.125l0 -22.0q0 -2.484375 -1.578125 -3.671875q-1.5625 -1.1875 -3.625 -1.1875l-0.9375 0l0 -15.9375l29.984375 0zm40.5625 0l0 42.71875q0 2.875 1.421875 3.765625q1.421875 0.875 3.609375 0.875l1.15625 0l0 15.9375l-36.171875 0l0 -15.9375l1.671875 0q2.28125 0 3.375 -1.4375q1.09375 -1.453125 1.09375 -3.125l0 -22.0q0 -2.484375 -1.578125 -3.671875q-1.5625 -1.1875 -3.625 -1.1875l-0.9375 0l0 -15.9375l29.984375 0zm8.8125 39.53125q0 -6.3125 2.1875 -11.078125q2.1875 -4.78125 6.25 -7.96875q4.0625 -3.203125 9.78125 -4.828125q5.71875 -1.640625 12.765625 -1.640625q7.046875 0 12.75 1.640625q5.71875 1.625 9.75 4.828125q4.046875 3.1875 6.25 7.96875q2.21875 4.765625 2.21875 11.078125q0 6.234375 -2.21875 11.046875q-2.203125 4.8125 -6.25 8.0625q-4.03125 3.234375 -9.75 4.859375q-5.703125 1.640625 -12.75 1.640625q-7.046875 0 -12.765625 -1.640625q-5.71875 -1.625 -9.78125 -4.859375q-4.0625 -3.25 -6.25 -8.0625q-2.1875 -4.8125 -2.1875 -11.046875zm24.453125 0q0 3.609375 0.3125 6.125q0.328125 2.515625 1.046875 4.046875q0.734375 1.515625 1.984375 2.234375q1.25 0.703125 3.1875 0.703125q1.921875 0 3.140625 -0.703125q1.234375 -0.71875 1.984375 -2.234375q0.75 -1.53125 1.046875 -4.046875q0.3125 -2.515625 0.3125 -6.125q0 -7.21875 -1.359375 -10.109375q-1.34375 -2.90625 -5.125 -2.90625q-1.9375 0 -3.1875 0.671875q-1.25 0.65625 -1.984375 2.1875q-0.71875 1.515625 -1.046875 4.03125q-0.3125 2.515625 -0.3125 6.125zm73.125 -13.921875q-3.6875 0 -5.671875 3.140625q-1.96875 3.140625 -1.96875 10.4375q0 7.3125 2.03125 10.390625q2.046875 3.0625 6.25 3.0625q1.203125 0 2.453125 -0.390625q1.25 -0.390625 2.25 -1.140625q1.015625 -0.75 1.671875 -1.921875q0.671875 -1.1875 0.765625 -2.78125l13.875 0q-1.375 9.578125 -7.71875 14.15625q-6.328125 4.578125 -18.0625 4.578125q-5.890625 0 -11.0 -1.546875q-5.109375 -1.546875 -8.890625 -4.703125q-3.78125 -3.15625 -5.9375 -7.9375q-2.140625 -4.796875 -2.140625 -11.421875q0 -6.3125 2.140625 -11.078125q2.15625 -4.78125 6.046875 -7.96875q3.890625 -3.203125 9.1875 -4.828125q5.3125 -1.640625 11.671875 -1.640625q6.75 0 11.390625 1.671875q4.640625 1.671875 7.484375 4.1875q2.859375 2.515625 4.078125 5.421875q1.234375 2.890625 1.234375 5.421875q0 2.03125 -0.578125 3.96875q-0.578125 1.921875 -1.890625 3.515625q-1.3125 1.59375 -3.328125 2.5625q-2.015625 0.953125 -4.9375 0.953125q-2.796875 0 -4.5625 -0.78125q-1.765625 -0.796875 -2.734375 -1.984375q-0.953125 -1.1875 -1.375 -2.484375q-0.40625 -1.3125 -0.40625 -2.484375q0 -2.609375 1.25 -4.15625q1.25 -1.546875 2.875 -2.15625q-0.9375 -0.734375 -1.90625 -1.390625q-0.96875 -0.671875 -3.546875 -0.671875zm62.39453 -14.484375q-6.140625 2.375 -8.75 9.140625q-2.59375 6.765625 -2.59375 17.078125q0 10.09375 2.640625 16.890625q2.640625 6.78125 8.703125 9.0625l0 13.015625q-8.25 -1.15625 -14.828125 -4.3125q-6.578125 -3.15625 -11.09375 -8.125q-4.5 -4.96875 -6.890625 -11.671875q-2.375 -6.703125 -2.375 -14.953125q0 -8.28125 2.421875 -15.0q2.421875 -6.734375 6.953125 -11.6875q4.546875 -4.96875 11.09375 -8.109375q6.546875 -3.140625 14.71875 -4.296875l0 12.96875zm7.0507812 -12.96875q8.15625 1.15625 14.734375 4.296875q6.578125 3.140625 11.078125 8.109375q4.515625 4.953125 6.9375 11.6875q2.4375 6.71875 2.4375 15.0q0 8.25 -2.375 14.953125q-2.359375 6.703125 -6.890625 11.671875q-4.53125 4.96875 -11.109375 8.125q-6.5625 3.15625 -14.8125 4.3125l0 -13.015625q6.046875 -2.28125 8.6875 -9.0625q2.65625 -6.796875 2.65625 -16.890625q0 -10.3125 -2.609375 -17.078125q-2.59375 -6.765625 -8.734375 -9.140625l0 -12.96875z" fill-rule="nonzero"/></g></svg>